<?xml version="1.0" encoding="UTF-8" standalone="no"?>
<!DOCTYPE svg PUBLIC "-//W3C//DTD SVG 1.1//EN" "http://www.w3.org/Graphics/SVG/1.1/DTD/svg11.dtd">
<svg width="100%" height="100%" viewBox="0 0 100 20" version="1.1" xmlns="http://www.w3.org/2000/svg" xmlns:xlink="http://www.w3.org/1999/xlink" xml:space="preserve" xmlns:serif="http://www.serif.com/" style="fill-rule:evenodd;clip-rule:evenodd;stroke-linejoin:round;stroke-miterlimit:2;">
    <path d="M100,3.955C100,1.771 98.229,0 96.045,0L4.011,0C1.796,0 0,1.796 0,4.011L0,16.021C0,18.219 1.781,20 3.979,20L95.965,20C97.035,20 98.062,19.575 98.818,18.818C99.575,18.062 100,17.035 100,15.965L100,3.955Z" style="fill:url(#_Linear1);"/>
    <g transform="matrix(1,0,0,1,0,-2)">
        <g transform="matrix(1,0,0,1,6.78027,15.4477)">
            <text x="0px" y="0px" style="font-family:'DejaVuSans', 'DejaVu Sans', sans-serif;font-size:11px;fill-opacity:0.55;">templ</text>
        </g>
        <g transform="matrix(1,0,0,1,6.78027,14.5159)">
            <text x="0px" y="0px" style="font-family:'DejaVuSans', 'DejaVu Sans', sans-serif;font-size:11px;fill:white;">templ</text>
        </g>
    </g>
    <g transform="matrix(1.03704,0,0,1,-3.7037,0)">
        <path d="M100,4.003C100,2.941 99.593,1.923 98.869,1.172C98.146,0.422 97.164,0 96.14,0L73,0L73,20L96.171,20C98.286,20 100,18.222 100,16.029L100,4.003Z" style="fill:url(#_Linear2);"/>
    </g>
    <g transform="matrix(1,0,0,1,-0.0966651,0.806251)">
        <path d="M86.5,3C90.087,3 93,5.913 93,9.5C93,13.087 90.087,16 86.5,16C82.913,16 80,13.087 80,9.5C80,5.913 82.913,3 86.5,3ZM86.5,5C88.984,5 91,7.016 91,9.5C91,11.984 88.984,14 86.5,14C84.016,14 82,11.984 82,9.5C82,7.016 84.016,5 86.5,5Z" style="fill-opacity:0.38;"/>
        <circle cx="86.5" cy="9.5" r="2.5" style="fill-opacity:0.38;"/>
    </g>
    <g transform="matrix(1,0,0,1,-0.0966651,0.206251)">
        <path d="M86.5,3C90.087,3 93,5.913 93,9.5C93,13.087 90.087,16 86.5,16C82.913,16 80,13.087 80,9.5C80,5.913 82.913,3 86.5,3ZM86.5,5C88.984,5 91,7.016 91,9.5C91,11.984 88.984,14 86.5,14C84.016,14 82,11.984 82,9.5C82,7.016 84.016,5 86.5,5Z" style="fill:white;"/>
        <path d="M86.5,3C90.087,3 93,5.913 93,9.5C93,13.087 90.087,16 86.5,16C82.913,16 80,13.087 80,9.5C80,5.913 82.913,3 86.5,3ZM86.5,5C88.984,5 91,7.016 91,9.5C91,11.984 88.984,14 86.5,14C84.016,14 82,11.984 82,9.5C82,7.016 84.016,5 86.5,5Z" style="fill:white;"/>
        <circle cx="86.5" cy="9.5" r="2.5" style="fill:white;"/>
    </g>
    <defs>
        <linearGradient id="_Linear1" x1="0" y1="0" x2="1" y2="0" gradientUnits="userSpaceOnUse" gradientTransform="matrix(9.63542e-16,15.7358,-15.7358,9.63542e-16,42,0)"><stop offset="0" style="stop-color:rgb(93,93,93);stop-opacity:1"/><stop offset="1" style="stop-color:rgb(49,49,49);stop-opacity:1"/></linearGradient>
        <linearGradient id="_Linear2" x1="0" y1="0" x2="1" y2="0" gradientUnits="userSpaceOnUse" gradientTransform="matrix(9.29127e-16,15.7358,-15.1738,9.63542e-16,86.4997,0)"><stop offset="0" style="stop-color:rgb(153,199,17);stop-opacity:1"/><stop offset="1" style="stop-color:rgb(91,122,0);stop-opacity:1"/></linearGradient>
    </defs>
</svg>
